<svg version="1.1" xmlns="http://www.w3.org/2000/svg" xmlns:xlink="http://www.w3.org/1999/xlink" width="444" height="388"><defs><linearGradient id="eNfPiJwTIPRt" x1="0px" x2="32px" y1="0px" y2="0px" gradientUnits="userSpaceOnUse"><stop offset="0" stop-color="#40be40"/><stop offset="1" stop-color="#6a946a"/></linearGradient><linearGradient id="HBpnHCklqnIe" x1="0px" x2="32px" y1="0px" y2="0px" gradientUnits="userSpaceOnUse"><stop offset="0" stop-color="#6a946a"/><stop offset="1" stop-color="#807f7f"/></linearGradient></defs><g><rect fill="#000000" stroke="none" x="0" y="0" width="444" height="388"/><g transform="scale(1,1) translate(-170,-270)"><path fill="none" stroke="#40be40" paint-order="fill stroke markers" d=" M 288 368 L 288 384" stroke-linecap="round" stroke-miterlimit="10" stroke-width="3" stroke-dasharray=""/><path fill="none" stroke="#6a946a" paint-order="fill stroke markers" d=" M 288 416 L 288 432" stroke-linecap="round" stroke-miterlimit="10" stroke-width="3" stroke-dasharray=""/><g transform="matrix(0,1,-1,0,288,384)"><path fill="none" stroke="url(#eNfPiJwTIPRt)" paint-order="fill stroke markers" d=" M 0 0 L 2 6 L 6 -6 L 10 6 L 14 -6 L 18 6 L 22 -6 L 26 6 L 30 -6 L 32 0" stroke-linecap="round" stroke-miterlimit="10" stroke-width="3" stroke-dasharray=""/></g><text fill="#ffffff" stroke="none" font-family="sans-serif" font-size="12px" font-style="normal" font-weight="normal" text-decoration="normal" x="298" y="406" text-anchor="start" dominant-baseline="alphabetic">1k</text><path fill="none" stroke="#807f7f" paint-order="fill stroke markers" d=" M 288 576 L 288 608" stroke-linecap="round" stroke-miterlimit="10" stroke-width="3" stroke-dasharray=""/><path fill="none" stroke="#807f7f" paint-order="fill stroke markers" d=" M 298 608 L 278 608" stroke-linecap="round" stroke-miterlimit="10" stroke-width="3" stroke-dasharray=""/><path fill="none" stroke="#807f7f" paint-order="fill stroke markers" d=" M 294 613 L 282 613" stroke-linecap="round" stroke-miterlimit="10" stroke-width="3" stroke-dasharray=""/><path fill="none" stroke="#807f7f" paint-order="fill stroke markers" d=" M 290 618 L 286 618" stroke-linecap="round" stroke-miterlimit="10" stroke-width="3" stroke-dasharray=""/><path fill="none" stroke="#807f7f" paint-order="fill stroke markers" d=" M 416 560 L 416 608" stroke-linecap="round" stroke-miterlimit="10" stroke-width="3" stroke-dasharray=""/><path fill="none" stroke="#807f7f" paint-order="fill stroke markers" d=" M 426 608 L 406 608" stroke-linecap="round" stroke-miterlimit="10" stroke-width="3" stroke-dasharray=""/><path fill="none" stroke="#807f7f" paint-order="fill stroke markers" d=" M 422 613 L 410 613" stroke-linecap="round" stroke-miterlimit="10" stroke-width="3" stroke-dasharray=""/><path fill="none" stroke="#807f7f" paint-order="fill stroke markers" d=" M 418 618 L 414 618" stroke-linecap="round" stroke-miterlimit="10" stroke-width="3" stroke-dasharray=""/><path fill="none" stroke="#6a946a" paint-order="fill stroke markers" d=" M 416 464 L 416 480" stroke-linecap="round" stroke-miterlimit="10" stroke-width="3" stroke-dasharray=""/><path fill="none" stroke="#807f7f" paint-order="fill stroke markers" d=" M 416 512 L 416 528" stroke-linecap="round" stroke-miterlimit="10" stroke-width="3" stroke-dasharray=""/><g transform="matrix(0,1,-1,0,416,480)"><path fill="none" stroke="url(#HBpnHCklqnIe)" paint-order="fill stroke markers" d=" M 0 0 L 2 6 L 6 -6 L 10 6 L 14 -6 L 18 6 L 22 -6 L 26 6 L 30 -6 L 32 0" stroke-linecap="round" stroke-miterlimit="10" stroke-width="3" stroke-dasharray=""/></g><text fill="#ffffff" stroke="none" font-family="sans-serif" font-size="12px" font-style="normal" font-weight="normal" text-decoration="normal" x="426" y="502" text-anchor="start" dominant-baseline="alphabetic">1k</text><path fill="none" stroke="#6a946a" paint-order="fill stroke markers" d=" M 288 432 L 288 448" stroke-linecap="round" stroke-miterlimit="10" stroke-width="3" stroke-dasharray=""/><path fill="none" stroke="#728d72" paint-order="fill stroke markers" d=" M 288 464 L 288 480" stroke-linecap="round" stroke-miterlimit="10" stroke-width="3" stroke-dasharray=""/><path fill="#6a946a" stroke="none" paint-order="stroke fill markers" d=" M 296 448 L 280 448 L 288 464 Z"/><path fill="none" stroke="#728d72" paint-order="fill stroke markers" d=" M 296 464 L 280 464" stroke-linecap="round" stroke-miterlimit="10" stroke-width="3" stroke-dasharray=""/><path fill="none" stroke="#6a946a" paint-order="fill stroke markers" d=" M 288 432 L 416 432" stroke-linecap="round" stroke-miterlimit="10" stroke-width="3" stroke-dasharray=""/><text fill="#ffffff" stroke="none" font-family="sans-serif" font-size="12px" font-style="normal" font-weight="normal" text-decoration="normal" x="352" y="426" text-anchor="start" dominant-baseline="alphabetic"></text><path fill="none" stroke="#6a946a" paint-order="fill stroke markers" d=" M 416 432 L 416 464" stroke-linecap="round" stroke-miterlimit="10" stroke-width="3" stroke-dasharray=""/><text fill="#ffffff" stroke="none" font-family="sans-serif" font-size="12px" font-style="normal" font-weight="normal" text-decoration="normal" x="422" y="454" text-anchor="start" dominant-baseline="alphabetic"></text><path fill="none" stroke="#6a946a" paint-order="fill stroke markers" d=" M 416 432 L 496 432" stroke-linecap="round" stroke-miterlimit="10" stroke-width="3" stroke-dasharray=""/><text fill="#ffffff" stroke="none" font-family="sans-serif" font-size="12px" font-style="normal" font-weight="normal" text-decoration="normal" x="456" y="426" text-anchor="start" dominant-baseline="alphabetic"></text><g><g><text fill="#ffffff" stroke="none" font-family="sans-serif" font-size="14px" font-style="normal" font-weight="normal" text-decoration="normal" x="544" y="432" text-anchor="middle" dominant-baseline="central">1.75 V</text></g><path fill="none" stroke="#6a946a" paint-order="fill stroke markers" d=" M 496 432 L 516 432" stroke-linecap="round" stroke-miterlimit="10" stroke-width="3" stroke-dasharray=""/></g><path fill="none" stroke="#40be40" paint-order="fill stroke markers" d=" M 288 368 L 288 337" stroke-linecap="round" stroke-miterlimit="10" stroke-width="3" stroke-dasharray=""/><g><text fill="#ffffff" stroke="none" font-family="sans-serif" font-size="12px" font-style="normal" font-weight="normal" text-decoration="normal" x="278" y="323" text-anchor="start" dominant-baseline="central">+5V</text></g><path fill="none" stroke="#728d72" paint-order="fill stroke markers" d=" M 288 480 L 288 496" stroke-linecap="round" stroke-miterlimit="10" stroke-width="3" stroke-dasharray=""/><path fill="none" stroke="#7a857a" paint-order="fill stroke markers" d=" M 288 512 L 288 528" stroke-linecap="round" stroke-miterlimit="10" stroke-width="3" stroke-dasharray=""/><path fill="#728d72" stroke="none" paint-order="stroke fill markers" d=" M 296 496 L 280 496 L 288 512 Z"/><path fill="none" stroke="#7a857a" paint-order="fill stroke markers" d=" M 296 512 L 280 512" stroke-linecap="round" stroke-miterlimit="10" stroke-width="3" stroke-dasharray=""/><path fill="none" stroke="#7a857a" paint-order="fill stroke markers" d=" M 288 528 L 288 544" stroke-linecap="round" stroke-miterlimit="10" stroke-width="3" stroke-dasharray=""/><path fill="none" stroke="#807f7f" paint-order="fill stroke markers" d=" M 288 560 L 288 576" stroke-linecap="round" stroke-miterlimit="10" stroke-width="3" stroke-dasharray=""/><path fill="#7a857a" stroke="none" paint-order="stroke fill markers" d=" M 296 544 L 280 544 L 288 560 Z"/><path fill="none" stroke="#807f7f" paint-order="fill stroke markers" d=" M 296 560 L 280 560" stroke-linecap="round" stroke-miterlimit="10" stroke-width="3" stroke-dasharray=""/><path fill="none" stroke="#807f7f" paint-order="fill stroke markers" d=" M 416 560 L 416 528" stroke-linecap="round" stroke-miterlimit="10" stroke-width="3" stroke-dasharray=""/><text fill="#ffffff" stroke="none" font-family="sans-serif" font-size="12px" font-style="normal" font-weight="normal" text-decoration="normal" x="422" y="550" text-anchor="start" dominant-baseline="alphabetic"></text><g><g><text fill="#ffffff" stroke="none" font-family="sans-serif" font-size="14px" font-style="normal" font-weight="normal" text-decoration="normal" x="223" y="480" text-anchor="start" dominant-baseline="central">TP</text><text fill="#ffffff" stroke="none" font-family="sans-serif" font-size="14px" font-style="normal" font-weight="normal" text-decoration="normal" x="212" y="494" text-anchor="start" dominant-baseline="central">1.17 V</text></g><path fill="none" stroke="#728d72" paint-order="fill stroke markers" d=" M 288 480 L 256 480" stroke-linecap="round" stroke-miterlimit="10" stroke-width="3" stroke-dasharray=""/></g><g><g><text fill="#ffffff" stroke="none" font-family="sans-serif" font-size="14px" font-style="normal" font-weight="normal" text-decoration="normal" x="210" y="528" text-anchor="start" dominant-baseline="central">TP</text><text fill="#ffffff" stroke="none" font-family="sans-serif" font-size="14px" font-style="normal" font-weight="normal" text-decoration="normal" x="185" y="542" text-anchor="start" dominant-baseline="central">583.82 mV</text></g><path fill="none" stroke="#7a857a" paint-order="fill stroke markers" d=" M 288 528 L 256 528" stroke-linecap="round" stroke-miterlimit="10" stroke-width="3" stroke-dasharray=""/></g><g><g><text fill="#ffffff" stroke="none" font-family="sans-serif" font-size="14px" font-style="normal" font-weight="normal" text-decoration="normal" x="233" y="576" text-anchor="start" dominant-baseline="central">TP</text><text fill="#ffffff" stroke="none" font-family="sans-serif" font-size="14px" font-style="normal" font-weight="normal" text-decoration="normal" x="231" y="590" text-anchor="start" dominant-baseline="central">0 V</text></g><path fill="none" stroke="#807f7f" paint-order="fill stroke markers" d=" M 288 576 L 256 576" stroke-linecap="round" stroke-miterlimit="10" stroke-width="3" stroke-dasharray=""/></g><g><g><text fill="#ffffff" stroke="none" font-family="sans-serif" font-size="14px" font-style="normal" font-weight="normal" text-decoration="normal" x="233" y="368" text-anchor="start" dominant-baseline="central">TP</text><text fill="#ffffff" stroke="none" font-family="sans-serif" font-size="14px" font-style="normal" font-weight="normal" text-decoration="normal" x="231" y="382" text-anchor="start" dominant-baseline="central">5 V</text></g><path fill="none" stroke="#40be40" paint-order="fill stroke markers" d=" M 288 368 L 256 368" stroke-linecap="round" stroke-miterlimit="10" stroke-width="3" stroke-dasharray=""/></g><g><g><text fill="#ffffff" stroke="none" font-family="sans-serif" font-size="14px" font-style="normal" font-weight="normal" text-decoration="normal" x="407" y="376" text-anchor="start" dominant-baseline="central">TP</text><text fill="#ffffff" stroke="none" font-family="sans-serif" font-size="14px" font-style="normal" font-weight="normal" text-decoration="normal" x="396" y="390" text-anchor="start" dominant-baseline="central">1.75 V</text></g><path fill="none" stroke="#6a946a" paint-order="fill stroke markers" d=" M 416 432 L 416 400" stroke-linecap="round" stroke-miterlimit="10" stroke-width="3" stroke-dasharray=""/></g><g><g><text fill="#ffffff" stroke="none" font-family="sans-serif" font-size="14px" font-style="normal" font-weight="normal" text-decoration="normal" x="361" y="560" text-anchor="start" dominant-baseline="central">TP</text><text fill="#ffffff" stroke="none" font-family="sans-serif" font-size="14px" font-style="normal" font-weight="normal" text-decoration="normal" x="359" y="574" text-anchor="start" dominant-baseline="central">0 V</text></g><path fill="none" stroke="#807f7f" paint-order="fill stroke markers" d=" M 416 560 L 384 560" stroke-linecap="round" stroke-miterlimit="10" stroke-width="3" stroke-dasharray=""/></g><path fill="#ffffff" stroke="none" paint-order="stroke fill markers" d=" M 291 368 A 3 3 0 1 1 290.99999999995777 367.99998407846124 Z"/><path fill="#ffffff" stroke="none" paint-order="stroke fill markers" d=" M 291 432 A 3 3 0 1 1 290.99999999995777 431.99998407846124 Z"/><path fill="#ffffff" stroke="none" paint-order="stroke fill markers" d=" M 291 576 A 3 3 0 1 1 290.99999999995777 575.9999840784612 Z"/><path fill="#ffffff" stroke="none" paint-order="stroke fill markers" d=" M 419 560 A 3 3 0 1 1 418.99999999995777 559.9999840784612 Z"/><path fill="#ffffff" stroke="none" paint-order="stroke fill markers" d=" M 291 480 A 3 3 0 1 1 290.99999999995777 479.99998407846124 Z"/><path fill="#ffffff" stroke="none" paint-order="stroke fill markers" d=" M 419 432 A 3 3 0 1 1 418.99999999995777 431.99998407846124 Z"/><path fill="#ffffff" stroke="none" paint-order="stroke fill markers" d=" M 291 528 A 3 3 0 1 1 290.99999999995777 527.9999840784612 Z"/></g></g></svg>