<svg version="1.1" xmlns="http://www.w3.org/2000/svg" xmlns:xlink="http://www.w3.org/1999/xlink" width="188" height="372"><defs><linearGradient id="NPhDCeXcztUP" x1="0px" x2="32px" y1="0px" y2="0px" gradientUnits="userSpaceOnUse"><stop offset="0" stop-color="#59a659"/><stop offset="1" stop-color="#807f7f"/></linearGradient></defs><g><rect fill="#000000" stroke="none" x="0" y="0" width="188" height="372"/><g transform="scale(1,1) translate(-170,-334)"><path fill="none" stroke="#59a659" paint-order="fill stroke markers" d=" M 288 576 L 288 584" stroke-linecap="round" stroke-miterlimit="10" stroke-width="3" stroke-dasharray=""/><path fill="none" stroke="#807f7f" paint-order="fill stroke markers" d=" M 288 616 L 288 624" stroke-linecap="round" stroke-miterlimit="10" stroke-width="3" stroke-dasharray=""/><g transform="matrix(0,1,-1,0,288,584)"><path fill="none" stroke="url(#NPhDCeXcztUP)" paint-order="fill stroke markers" d=" M 0 0 L 2 6 L 6 -6 L 10 6 L 14 -6 L 18 6 L 22 -6 L 26 6 L 30 -6 L 32 0" stroke-linecap="round" stroke-miterlimit="10" stroke-width="3" stroke-dasharray=""/></g><text fill="#ffffff" stroke="none" font-family="sans-serif" font-size="12px" font-style="normal" font-weight="normal" text-decoration="normal" x="298" y="606" text-anchor="start" dominant-baseline="alphabetic">1k</text><path fill="none" stroke="#807f7f" paint-order="fill stroke markers" d=" M 288 624 L 288 656" stroke-linecap="round" stroke-miterlimit="10" stroke-width="3" stroke-dasharray=""/><path fill="none" stroke="#807f7f" paint-order="fill stroke markers" d=" M 298 656 L 278 656" stroke-linecap="round" stroke-miterlimit="10" stroke-width="3" stroke-dasharray=""/><path fill="none" stroke="#807f7f" paint-order="fill stroke markers" d=" M 294 661 L 282 661" stroke-linecap="round" stroke-miterlimit="10" stroke-width="3" stroke-dasharray=""/><path fill="none" stroke="#807f7f" paint-order="fill stroke markers" d=" M 290 666 L 286 666" stroke-linecap="round" stroke-miterlimit="10" stroke-width="3" stroke-dasharray=""/><path fill="none" stroke="#40be40" paint-order="fill stroke markers" d=" M 288 432 L 288 448" stroke-linecap="round" stroke-miterlimit="10" stroke-width="3" stroke-dasharray=""/><path fill="none" stroke="#49b549" paint-order="fill stroke markers" d=" M 288 464 L 288 480" stroke-linecap="round" stroke-miterlimit="10" stroke-width="3" stroke-dasharray=""/><path fill="#40be40" stroke="none" paint-order="stroke fill markers" d=" M 296 448 L 280 448 L 288 464 Z"/><path fill="none" stroke="#49b549" paint-order="fill stroke markers" d=" M 296 464 L 280 464" stroke-linecap="round" stroke-miterlimit="10" stroke-width="3" stroke-dasharray=""/><path fill="none" stroke="#40be40" paint-order="fill stroke markers" d=" M 288 432 L 288 401" stroke-linecap="round" stroke-miterlimit="10" stroke-width="3" stroke-dasharray=""/><g><text fill="#ffffff" stroke="none" font-family="sans-serif" font-size="12px" font-style="normal" font-weight="normal" text-decoration="normal" x="278" y="389" text-anchor="start" dominant-baseline="central">+5V</text></g><path fill="none" stroke="#49b549" paint-order="fill stroke markers" d=" M 288 480 L 288 496" stroke-linecap="round" stroke-miterlimit="10" stroke-width="3" stroke-dasharray=""/><path fill="none" stroke="#51ae51" paint-order="fill stroke markers" d=" M 288 512 L 288 528" stroke-linecap="round" stroke-miterlimit="10" stroke-width="3" stroke-dasharray=""/><path fill="#49b549" stroke="none" paint-order="stroke fill markers" d=" M 296 496 L 280 496 L 288 512 Z"/><path fill="none" stroke="#51ae51" paint-order="fill stroke markers" d=" M 296 512 L 280 512" stroke-linecap="round" stroke-miterlimit="10" stroke-width="3" stroke-dasharray=""/><path fill="none" stroke="#51ae51" paint-order="fill stroke markers" d=" M 288 528 L 288 544" stroke-linecap="round" stroke-miterlimit="10" stroke-width="3" stroke-dasharray=""/><path fill="none" stroke="#59a659" paint-order="fill stroke markers" d=" M 288 560 L 288 576" stroke-linecap="round" stroke-miterlimit="10" stroke-width="3" stroke-dasharray=""/><path fill="#51ae51" stroke="none" paint-order="stroke fill markers" d=" M 296 544 L 280 544 L 288 560 Z"/><path fill="none" stroke="#59a659" paint-order="fill stroke markers" d=" M 296 560 L 280 560" stroke-linecap="round" stroke-miterlimit="10" stroke-width="3" stroke-dasharray=""/><g><g><text fill="#ffffff" stroke="none" font-family="sans-serif" font-size="14px" font-style="normal" font-weight="normal" text-decoration="normal" x="223" y="480" text-anchor="start" dominant-baseline="central">TP</text><text fill="#ffffff" stroke="none" font-family="sans-serif" font-size="14px" font-style="normal" font-weight="normal" text-decoration="normal" x="212" y="494" text-anchor="start" dominant-baseline="central">4.38 V</text></g><path fill="none" stroke="#49b549" paint-order="fill stroke markers" d=" M 288 480 L 256 480" stroke-linecap="round" stroke-miterlimit="10" stroke-width="3" stroke-dasharray=""/></g><g><g><text fill="#ffffff" stroke="none" font-family="sans-serif" font-size="14px" font-style="normal" font-weight="normal" text-decoration="normal" x="223" y="528" text-anchor="start" dominant-baseline="central">TP</text><text fill="#ffffff" stroke="none" font-family="sans-serif" font-size="14px" font-style="normal" font-weight="normal" text-decoration="normal" x="212" y="542" text-anchor="start" dominant-baseline="central">3.76 V</text></g><path fill="none" stroke="#51ae51" paint-order="fill stroke markers" d=" M 288 528 L 256 528" stroke-linecap="round" stroke-miterlimit="10" stroke-width="3" stroke-dasharray=""/></g><g><g><text fill="#ffffff" stroke="none" font-family="sans-serif" font-size="14px" font-style="normal" font-weight="normal" text-decoration="normal" x="223" y="576" text-anchor="start" dominant-baseline="central">TP</text><text fill="#ffffff" stroke="none" font-family="sans-serif" font-size="14px" font-style="normal" font-weight="normal" text-decoration="normal" x="212" y="590" text-anchor="start" dominant-baseline="central">3.13 V</text></g><path fill="none" stroke="#59a659" paint-order="fill stroke markers" d=" M 288 576 L 256 576" stroke-linecap="round" stroke-miterlimit="10" stroke-width="3" stroke-dasharray=""/></g><g><g><text fill="#ffffff" stroke="none" font-family="sans-serif" font-size="14px" font-style="normal" font-weight="normal" text-decoration="normal" x="233" y="432" text-anchor="start" dominant-baseline="central">TP</text><text fill="#ffffff" stroke="none" font-family="sans-serif" font-size="14px" font-style="normal" font-weight="normal" text-decoration="normal" x="231" y="446" text-anchor="start" dominant-baseline="central">5 V</text></g><path fill="none" stroke="#40be40" paint-order="fill stroke markers" d=" M 288 432 L 256 432" stroke-linecap="round" stroke-miterlimit="10" stroke-width="3" stroke-dasharray=""/></g><g><g><text fill="#ffffff" stroke="none" font-family="sans-serif" font-size="14px" font-style="normal" font-weight="normal" text-decoration="normal" x="233" y="624" text-anchor="start" dominant-baseline="central">TP</text><text fill="#ffffff" stroke="none" font-family="sans-serif" font-size="14px" font-style="normal" font-weight="normal" text-decoration="normal" x="231" y="638" text-anchor="start" dominant-baseline="central">0 V</text></g><path fill="none" stroke="#807f7f" paint-order="fill stroke markers" d=" M 288 624 L 256 624" stroke-linecap="round" stroke-miterlimit="10" stroke-width="3" stroke-dasharray=""/></g><path fill="#ffffff" stroke="none" paint-order="stroke fill markers" d=" M 291 576 A 3 3 0 1 1 290.99999999995777 575.9999840784612 Z"/><path fill="#ffffff" stroke="none" paint-order="stroke fill markers" d=" M 291 624 A 3 3 0 1 1 290.99999999995777 623.9999840784612 Z"/><path fill="#ffffff" stroke="none" paint-order="stroke fill markers" d=" M 291 432 A 3 3 0 1 1 290.99999999995777 431.99998407846124 Z"/><path fill="#ffffff" stroke="none" paint-order="stroke fill markers" d=" M 291 480 A 3 3 0 1 1 290.99999999995777 479.99998407846124 Z"/><path fill="#ffffff" stroke="none" paint-order="stroke fill markers" d=" M 291 528 A 3 3 0 1 1 290.99999999995777 527.9999840784612 Z"/></g></g></svg>