<svg version="1.1" xmlns="http://www.w3.org/2000/svg" xmlns:xlink="http://www.w3.org/1999/xlink" width="604" height="196"><defs><linearGradient id="RHZOxTuDyJAe" x1="0px" x2="32px" y1="0px" y2="0px" gradientUnits="userSpaceOnUse"><stop offset="0" stop-color="#ff0000"/><stop offset="1" stop-color="#807f7f"/></linearGradient><linearGradient id="iGJXxTDOiqEd" x1="0px" x2="32px" y1="0px" y2="0px" gradientUnits="userSpaceOnUse"><stop offset="0" stop-color="#817e7e"/><stop offset="1" stop-color="#01fd01"/></linearGradient><linearGradient id="skDGIQAJDwKd" x1="0px" x2="32px" y1="0px" y2="0px" gradientUnits="userSpaceOnUse"><stop offset="0" stop-color="#01fd01"/><stop offset="1" stop-color="#01fd01"/></linearGradient><linearGradient id="TCocRptcOBmL" x1="0px" x2="32px" y1="0px" y2="0px" gradientUnits="userSpaceOnUse"><stop offset="0" stop-color="#6c936c"/><stop offset="1" stop-color="#6c936c"/></linearGradient><linearGradient id="tNUtnbUEaTRF" x1="0px" x2="32px" y1="0px" y2="0px" gradientUnits="userSpaceOnUse"><stop offset="0" stop-color="#01fd01"/><stop offset="1" stop-color="#6c936c"/></linearGradient></defs><g><rect fill="#000000" stroke="none" x="0" y="0" width="604" height="196"/><g transform="scale(1,1) translate(-106,-238)"><path fill="none" stroke="#ff0000" paint-order="fill stroke markers" d=" M 288 304 L 316 304" stroke-linecap="round" stroke-miterlimit="10" stroke-width="3" stroke-dasharray=""/><path fill="none" stroke="#817e7e" paint-order="fill stroke markers" d=" M 368 304 L 340 304" stroke-linecap="round" stroke-miterlimit="10" stroke-width="3" stroke-dasharray=""/><path fill="none" stroke="#807f7f" paint-order="fill stroke markers" d=" M 288 336 L 316 336" stroke-linecap="round" stroke-miterlimit="10" stroke-width="3" stroke-dasharray=""/><path fill="none" stroke="#01fd01" paint-order="fill stroke markers" d=" M 368 336 L 340 336" stroke-linecap="round" stroke-miterlimit="10" stroke-width="3" stroke-dasharray=""/><g transform="matrix(0,1,-1,0,316,304) scale(1,1)"><path fill="none" stroke="url(#RHZOxTuDyJAe)" paint-order="fill stroke markers" d=" M 0 0 L 0 6.53144959545255e-16 A 5.333333333333333 5.333333333333333 0 0 1 10.666666666666666 0 L 10.666666666666666 0" stroke-linecap="round" stroke-miterlimit="10" stroke-width="3" stroke-dasharray=""/><path fill="none" stroke="url(#RHZOxTuDyJAe)" paint-order="fill stroke markers" d=" M 10.666666666666666 0 L 10.666666666666668 6.53144959545255e-16 A 5.333333333333333 5.333333333333333 0 0 1 21.333333333333332 0 L 21.333333333333332 0" stroke-linecap="round" stroke-miterlimit="10" stroke-width="3" stroke-dasharray=""/><path fill="none" stroke="url(#RHZOxTuDyJAe)" paint-order="fill stroke markers" d=" M 21.333333333333332 0 L 21.333333333333336 6.53144959545255e-16 A 5.333333333333333 5.333333333333333 0 0 1 32 0 L 32 0" stroke-linecap="round" stroke-miterlimit="10" stroke-width="3" stroke-dasharray=""/></g><g transform="matrix(0,1,-1,0,340,304) scale(1,-1)"><path fill="none" stroke="url(#iGJXxTDOiqEd)" paint-order="fill stroke markers" d=" M 0 0 L 0 6.53144959545255e-16 A 5.333333333333333 5.333333333333333 0 0 1 10.666666666666666 0 L 10.666666666666666 0" stroke-linecap="round" stroke-miterlimit="10" stroke-width="3" stroke-dasharray=""/><path fill="none" stroke="url(#iGJXxTDOiqEd)" paint-order="fill stroke markers" d=" M 10.666666666666666 0 L 10.666666666666668 6.53144959545255e-16 A 5.333333333333333 5.333333333333333 0 0 1 21.333333333333332 0 L 21.333333333333332 0" stroke-linecap="round" stroke-miterlimit="10" stroke-width="3" stroke-dasharray=""/><path fill="none" stroke="url(#iGJXxTDOiqEd)" paint-order="fill stroke markers" d=" M 21.333333333333332 0 L 21.333333333333336 6.53144959545255e-16 A 5.333333333333333 5.333333333333333 0 0 1 32 0 L 32 0" stroke-linecap="round" stroke-miterlimit="10" stroke-width="3" stroke-dasharray=""/></g><path fill="none" stroke="#c0c0c0" paint-order="fill stroke markers" d=" M 326 304 L 326 336" stroke-linecap="round" stroke-miterlimit="10" stroke-width="3" stroke-dasharray=""/><path fill="none" stroke="#c0c0c0" paint-order="fill stroke markers" d=" M 330 304 L 330 336" stroke-linecap="round" stroke-miterlimit="10" stroke-width="3" stroke-dasharray=""/><path fill="none" stroke="#6c936c" paint-order="fill stroke markers" d=" M 400 320 L 410 310" stroke-linecap="round" stroke-miterlimit="10" stroke-width="3" stroke-dasharray=""/><path fill="none" stroke="#817e7e" paint-order="fill stroke markers" d=" M 422 298 L 432 288" stroke-linecap="round" stroke-miterlimit="10" stroke-width="3" stroke-dasharray=""/><path fill="#6c936c" stroke="none" paint-order="stroke fill markers" d=" M 404 304 L 416 316 L 422 298 Z"/><path fill="none" stroke="#817e7e" paint-order="fill stroke markers" d=" M 416 292 L 428 304" stroke-linecap="round" stroke-miterlimit="10" stroke-width="3" stroke-dasharray=""/><path fill="none" stroke="#817e7e" paint-order="fill stroke markers" d=" M 432 288 L 442 298" stroke-linecap="round" stroke-miterlimit="10" stroke-width="3" stroke-dasharray=""/><path fill="none" stroke="#01fd01" paint-order="fill stroke markers" d=" M 454 310 L 464 320" stroke-linecap="round" stroke-miterlimit="10" stroke-width="3" stroke-dasharray=""/><path fill="#817e7e" stroke="none" paint-order="stroke fill markers" d=" M 448 292 L 436 304 L 454 310 Z"/><path fill="none" stroke="#01fd01" paint-order="fill stroke markers" d=" M 460 304 L 448 316" stroke-linecap="round" stroke-miterlimit="10" stroke-width="3" stroke-dasharray=""/><path fill="none" stroke="#01fd01" paint-order="fill stroke markers" d=" M 432 352 L 442 342" stroke-linecap="round" stroke-miterlimit="10" stroke-width="3" stroke-dasharray=""/><path fill="none" stroke="#01fd01" paint-order="fill stroke markers" d=" M 454 330 L 464 320" stroke-linecap="round" stroke-miterlimit="10" stroke-width="3" stroke-dasharray=""/><path fill="#01fd01" stroke="none" paint-order="stroke fill markers" d=" M 436 336 L 448 348 L 454 330 Z"/><path fill="none" stroke="#01fd01" paint-order="fill stroke markers" d=" M 448 324 L 460 336" stroke-linecap="round" stroke-miterlimit="10" stroke-width="3" stroke-dasharray=""/><path fill="none" stroke="#6c936c" paint-order="fill stroke markers" d=" M 400 320 L 410 330" stroke-linecap="round" stroke-miterlimit="10" stroke-width="3" stroke-dasharray=""/><path fill="none" stroke="#01fd01" paint-order="fill stroke markers" d=" M 422 342 L 432 352" stroke-linecap="round" stroke-miterlimit="10" stroke-width="3" stroke-dasharray=""/><path fill="#6c936c" stroke="none" paint-order="stroke fill markers" d=" M 416 324 L 404 336 L 422 342 Z"/><path fill="none" stroke="#01fd01" paint-order="fill stroke markers" d=" M 428 336 L 416 348" stroke-linecap="round" stroke-miterlimit="10" stroke-width="3" stroke-dasharray=""/><path fill="none" stroke="#817e7e" paint-order="fill stroke markers" d=" M 368 304 L 368 288" stroke-linecap="round" stroke-miterlimit="10" stroke-width="3" stroke-dasharray=""/><text fill="#ffffff" stroke="none" font-family="sans-serif" font-size="12px" font-style="normal" font-weight="normal" text-decoration="normal" x="374" y="302" text-anchor="start" dominant-baseline="alphabetic"></text><path fill="none" stroke="#817e7e" paint-order="fill stroke markers" d=" M 368 288 L 432 288" stroke-linecap="round" stroke-miterlimit="10" stroke-width="3" stroke-dasharray=""/><text fill="#ffffff" stroke="none" font-family="sans-serif" font-size="12px" font-style="normal" font-weight="normal" text-decoration="normal" x="400" y="282" text-anchor="start" dominant-baseline="alphabetic"></text><path fill="none" stroke="#01fd01" paint-order="fill stroke markers" d=" M 368 336 L 368 352" stroke-linecap="round" stroke-miterlimit="10" stroke-width="3" stroke-dasharray=""/><text fill="#ffffff" stroke="none" font-family="sans-serif" font-size="12px" font-style="normal" font-weight="normal" text-decoration="normal" x="374" y="350" text-anchor="start" dominant-baseline="alphabetic"></text><path fill="none" stroke="#01fd01" paint-order="fill stroke markers" d=" M 368 352 L 432 352" stroke-linecap="round" stroke-miterlimit="10" stroke-width="3" stroke-dasharray=""/><text fill="#ffffff" stroke="none" font-family="sans-serif" font-size="12px" font-style="normal" font-weight="normal" text-decoration="normal" x="400" y="346" text-anchor="start" dominant-baseline="alphabetic"></text><path fill="none" stroke="#6c936c" paint-order="fill stroke markers" d=" M 400 320 L 400 384" stroke-linecap="round" stroke-miterlimit="10" stroke-width="3" stroke-dasharray=""/><text fill="#ffffff" stroke="none" font-family="sans-serif" font-size="12px" font-style="normal" font-weight="normal" text-decoration="normal" x="406" y="358" text-anchor="start" dominant-baseline="alphabetic"></text><path fill="none" stroke="#01fd01" paint-order="fill stroke markers" d=" M 464 320 L 496 320" stroke-linecap="round" stroke-miterlimit="10" stroke-width="3" stroke-dasharray=""/><text fill="#ffffff" stroke="none" font-family="sans-serif" font-size="12px" font-style="normal" font-weight="normal" text-decoration="normal" x="480" y="314" text-anchor="start" dominant-baseline="alphabetic"></text><path fill="none" stroke="#6c936c" paint-order="fill stroke markers" d=" M 400 384 L 496 384" stroke-linecap="round" stroke-miterlimit="10" stroke-width="3" stroke-dasharray=""/><text fill="#ffffff" stroke="none" font-family="sans-serif" font-size="12px" font-style="normal" font-weight="normal" text-decoration="normal" x="448" y="378" text-anchor="start" dominant-baseline="alphabetic"></text><path fill="none" stroke="#01fd01" paint-order="fill stroke markers" d=" M 496 320 L 496 348" stroke-linecap="round" stroke-miterlimit="10" stroke-width="3" stroke-dasharray=""/><path fill="none" stroke="#01fd01" paint-order="fill stroke markers" d=" M 508 348 L 484 348" stroke-linecap="round" stroke-miterlimit="10" stroke-width="3" stroke-dasharray=""/><path fill="none" stroke="#6c936c" paint-order="fill stroke markers" d=" M 496 384 L 496 356" stroke-linecap="round" stroke-miterlimit="10" stroke-width="3" stroke-dasharray=""/><path fill="none" stroke="#6c936c" paint-order="fill stroke markers" d=" M 508 359 L 506 358" stroke-linecap="round" stroke-miterlimit="10" stroke-width="3" stroke-dasharray=""/><path fill="none" stroke="#6c936c" paint-order="fill stroke markers" d=" M 506 358 L 504 357" stroke-linecap="round" stroke-miterlimit="10" stroke-width="3" stroke-dasharray=""/><path fill="none" stroke="#6c936c" paint-order="fill stroke markers" d=" M 504 357 L 502 357" stroke-linecap="round" stroke-miterlimit="10" stroke-width="3" stroke-dasharray=""/><path fill="none" stroke="#6c936c" paint-order="fill stroke markers" d=" M 502 357 L 501 356" stroke-linecap="round" stroke-miterlimit="10" stroke-width="3" stroke-dasharray=""/><path fill="none" stroke="#6c936c" paint-order="fill stroke markers" d=" M 501 356 L 499 356" stroke-linecap="round" stroke-miterlimit="10" stroke-width="3" stroke-dasharray=""/><path fill="none" stroke="#6c936c" paint-order="fill stroke markers" d=" M 499 356 L 497 356" stroke-linecap="round" stroke-miterlimit="10" stroke-width="3" stroke-dasharray=""/><path fill="none" stroke="#6c936c" paint-order="fill stroke markers" d=" M 497 356 L 495 356" stroke-linecap="round" stroke-miterlimit="10" stroke-width="3" stroke-dasharray=""/><path fill="none" stroke="#6c936c" paint-order="fill stroke markers" d=" M 495 356 L 493 356" stroke-linecap="round" stroke-miterlimit="10" stroke-width="3" stroke-dasharray=""/><path fill="none" stroke="#6c936c" paint-order="fill stroke markers" d=" M 493 356 L 491 356" stroke-linecap="round" stroke-miterlimit="10" stroke-width="3" stroke-dasharray=""/><path fill="none" stroke="#6c936c" paint-order="fill stroke markers" d=" M 491 356 L 490 357" stroke-linecap="round" stroke-miterlimit="10" stroke-width="3" stroke-dasharray=""/><path fill="none" stroke="#6c936c" paint-order="fill stroke markers" d=" M 490 357 L 488 357" stroke-linecap="round" stroke-miterlimit="10" stroke-width="3" stroke-dasharray=""/><path fill="none" stroke="#6c936c" paint-order="fill stroke markers" d=" M 488 357 L 486 358" stroke-linecap="round" stroke-miterlimit="10" stroke-width="3" stroke-dasharray=""/><path fill="none" stroke="#6c936c" paint-order="fill stroke markers" d=" M 486 358 L 484 359" stroke-linecap="round" stroke-miterlimit="10" stroke-width="3" stroke-dasharray=""/><text fill="#ffffff" stroke="none" font-family="sans-serif" font-size="12px" font-style="normal" font-weight="normal" text-decoration="normal" x="510" y="358" text-anchor="start" dominant-baseline="alphabetic">3.3mF</text><text fill="#ffffff" stroke="none" font-family="sans-serif" font-size="12px" font-style="normal" font-weight="normal" text-decoration="normal" x="483" y="344" text-anchor="start" dominant-baseline="alphabetic">+</text><path fill="none" stroke="#01fd01" paint-order="fill stroke markers" d=" M 576 320 L 576 348" stroke-linecap="round" stroke-miterlimit="10" stroke-width="3" stroke-dasharray=""/><path fill="none" stroke="#01fd01" paint-order="fill stroke markers" d=" M 588 348 L 564 348" stroke-linecap="round" stroke-miterlimit="10" stroke-width="3" stroke-dasharray=""/><path fill="none" stroke="#6c936c" paint-order="fill stroke markers" d=" M 576 384 L 576 356" stroke-linecap="round" stroke-miterlimit="10" stroke-width="3" stroke-dasharray=""/><path fill="none" stroke="#6c936c" paint-order="fill stroke markers" d=" M 588 359 L 586 358" stroke-linecap="round" stroke-miterlimit="10" stroke-width="3" stroke-dasharray=""/><path fill="none" stroke="#6c936c" paint-order="fill stroke markers" d=" M 586 358 L 584 357" stroke-linecap="round" stroke-miterlimit="10" stroke-width="3" stroke-dasharray=""/><path fill="none" stroke="#6c936c" paint-order="fill stroke markers" d=" M 584 357 L 582 357" stroke-linecap="round" stroke-miterlimit="10" stroke-width="3" stroke-dasharray=""/><path fill="none" stroke="#6c936c" paint-order="fill stroke markers" d=" M 582 357 L 581 356" stroke-linecap="round" stroke-miterlimit="10" stroke-width="3" stroke-dasharray=""/><path fill="none" stroke="#6c936c" paint-order="fill stroke markers" d=" M 581 356 L 579 356" stroke-linecap="round" stroke-miterlimit="10" stroke-width="3" stroke-dasharray=""/><path fill="none" stroke="#6c936c" paint-order="fill stroke markers" d=" M 579 356 L 577 356" stroke-linecap="round" stroke-miterlimit="10" stroke-width="3" stroke-dasharray=""/><path fill="none" stroke="#6c936c" paint-order="fill stroke markers" d=" M 577 356 L 575 356" stroke-linecap="round" stroke-miterlimit="10" stroke-width="3" stroke-dasharray=""/><path fill="none" stroke="#6c936c" paint-order="fill stroke markers" d=" M 575 356 L 573 356" stroke-linecap="round" stroke-miterlimit="10" stroke-width="3" stroke-dasharray=""/><path fill="none" stroke="#6c936c" paint-order="fill stroke markers" d=" M 573 356 L 571 356" stroke-linecap="round" stroke-miterlimit="10" stroke-width="3" stroke-dasharray=""/><path fill="none" stroke="#6c936c" paint-order="fill stroke markers" d=" M 571 356 L 570 357" stroke-linecap="round" stroke-miterlimit="10" stroke-width="3" stroke-dasharray=""/><path fill="none" stroke="#6c936c" paint-order="fill stroke markers" d=" M 570 357 L 568 357" stroke-linecap="round" stroke-miterlimit="10" stroke-width="3" stroke-dasharray=""/><path fill="none" stroke="#6c936c" paint-order="fill stroke markers" d=" M 568 357 L 566 358" stroke-linecap="round" stroke-miterlimit="10" stroke-width="3" stroke-dasharray=""/><path fill="none" stroke="#6c936c" paint-order="fill stroke markers" d=" M 566 358 L 564 359" stroke-linecap="round" stroke-miterlimit="10" stroke-width="3" stroke-dasharray=""/><text fill="#ffffff" stroke="none" font-family="sans-serif" font-size="12px" font-style="normal" font-weight="normal" text-decoration="normal" x="590" y="358" text-anchor="start" dominant-baseline="alphabetic">3.3mF</text><text fill="#ffffff" stroke="none" font-family="sans-serif" font-size="12px" font-style="normal" font-weight="normal" text-decoration="normal" x="563" y="344" text-anchor="start" dominant-baseline="alphabetic">+</text><path fill="none" stroke="#01fd01" paint-order="fill stroke markers" d=" M 496 320 L 520 320" stroke-linecap="round" stroke-miterlimit="10" stroke-width="3" stroke-dasharray=""/><path fill="none" stroke="#01fd01" paint-order="fill stroke markers" d=" M 552 320 L 576 320" stroke-linecap="round" stroke-miterlimit="10" stroke-width="3" stroke-dasharray=""/><g transform="matrix(1,0,0,1,520,320)"><path fill="none" stroke="url(#skDGIQAJDwKd)" paint-order="fill stroke markers" d=" M 0 0 L 2 6 L 6 -6 L 10 6 L 14 -6 L 18 6 L 22 -6 L 26 6 L 30 -6 L 32 0" stroke-linecap="round" stroke-miterlimit="10" stroke-width="3" stroke-dasharray=""/></g><text fill="#ffffff" stroke="none" font-family="sans-serif" font-size="12px" font-style="normal" font-weight="normal" text-decoration="normal" x="528" y="310" text-anchor="start" dominant-baseline="alphabetic">1m</text><path fill="none" stroke="#6c936c" paint-order="fill stroke markers" d=" M 496 384 L 520 384" stroke-linecap="round" stroke-miterlimit="10" stroke-width="3" stroke-dasharray=""/><path fill="none" stroke="#6c936c" paint-order="fill stroke markers" d=" M 552 384 L 576 384" stroke-linecap="round" stroke-miterlimit="10" stroke-width="3" stroke-dasharray=""/><g transform="matrix(1,0,0,1,520,384)"><path fill="none" stroke="url(#TCocRptcOBmL)" paint-order="fill stroke markers" d=" M 0 0 L 2 6 L 6 -6 L 10 6 L 14 -6 L 18 6 L 22 -6 L 26 6 L 30 -6 L 32 0" stroke-linecap="round" stroke-miterlimit="10" stroke-width="3" stroke-dasharray=""/></g><text fill="#ffffff" stroke="none" font-family="sans-serif" font-size="12px" font-style="normal" font-weight="normal" text-decoration="normal" x="528" y="374" text-anchor="start" dominant-baseline="alphabetic">1m</text><path fill="none" stroke="#807f7f" paint-order="fill stroke markers" d=" M 240 336 L 240 336" stroke-linecap="round" stroke-miterlimit="10" stroke-width="3" stroke-dasharray=""/><path fill="none" stroke="#ff0000" paint-order="fill stroke markers" d=" M 240 304 L 240 304" stroke-linecap="round" stroke-miterlimit="10" stroke-width="3" stroke-dasharray=""/><path fill="none" stroke="#808080" paint-order="fill stroke markers" d=" M 256.66 320 A 16.66 16.66 0 1 1 256.6599916700007 319.98334000277663" stroke-linecap="round" stroke-miterlimit="10" stroke-width="3" stroke-dasharray=""/><path fill="none" stroke="#808080" paint-order="fill stroke markers" d=" M 230 320 L 231 318 L 232 316 L 233 314 L 234 313 L 235 313 L 236 313 L 237 314 L 238 316 L 239 318 L 240 320 L 241 322 L 242 324 L 243 326 L 244 327 L 245 327 L 246 327 L 247 326 L 248 324 L 249 322 L 250 320" stroke-linecap="round" stroke-miterlimit="10" stroke-width="3" stroke-dasharray=""/><text fill="#ffffff" stroke="none" font-family="sans-serif" font-size="12px" font-style="normal" font-weight="normal" text-decoration="normal" x="193" y="326" text-anchor="start" dominant-baseline="alphabetic">60Hz</text><text fill="#ffffff" stroke="none" font-family="sans-serif" font-size="12px" font-style="normal" font-weight="normal" text-decoration="normal" x="248" y="303" text-anchor="start" dominant-baseline="alphabetic">*</text><path fill="none" stroke="#807f7f" paint-order="fill stroke markers" d=" M 192 336 L 193 336" stroke-linecap="round" stroke-miterlimit="10" stroke-width="3" stroke-dasharray=""/><g><text fill="#ffffff" stroke="none" font-family="sans-serif" font-size="12px" font-style="normal" font-weight="normal" text-decoration="normal" x="197" y="336" text-anchor="start" dominant-baseline="central">120V</text></g><path fill="none" stroke="#ff0000" paint-order="fill stroke markers" d=" M 240 304 L 288 304" stroke-linecap="round" stroke-miterlimit="10" stroke-width="3" stroke-dasharray=""/><text fill="#ffffff" stroke="none" font-family="sans-serif" font-size="12px" font-style="normal" font-weight="normal" text-decoration="normal" x="264" y="298" text-anchor="start" dominant-baseline="alphabetic"></text><path fill="none" stroke="#807f7f" paint-order="fill stroke markers" d=" M 240 336 L 288 336" stroke-linecap="round" stroke-miterlimit="10" stroke-width="3" stroke-dasharray=""/><text fill="#ffffff" stroke="none" font-family="sans-serif" font-size="12px" font-style="normal" font-weight="normal" text-decoration="normal" x="264" y="330" text-anchor="start" dominant-baseline="alphabetic"></text><path fill="none" stroke="#807f7f" paint-order="fill stroke markers" d=" M 240 336 L 240 368" stroke-linecap="round" stroke-miterlimit="10" stroke-width="3" stroke-dasharray=""/><path fill="none" stroke="#807f7f" paint-order="fill stroke markers" d=" M 250 368 L 230 368" stroke-linecap="round" stroke-miterlimit="10" stroke-width="3" stroke-dasharray=""/><path fill="none" stroke="#807f7f" paint-order="fill stroke markers" d=" M 246 373 L 234 373" stroke-linecap="round" stroke-miterlimit="10" stroke-width="3" stroke-dasharray=""/><path fill="none" stroke="#807f7f" paint-order="fill stroke markers" d=" M 242 378 L 238 378" stroke-linecap="round" stroke-miterlimit="10" stroke-width="3" stroke-dasharray=""/><path fill="none" stroke="#01fd01" paint-order="fill stroke markers" d=" M 640 320 L 640 336" stroke-linecap="round" stroke-miterlimit="10" stroke-width="3" stroke-dasharray=""/><path fill="none" stroke="#6c936c" paint-order="fill stroke markers" d=" M 640 368 L 640 384" stroke-linecap="round" stroke-miterlimit="10" stroke-width="3" stroke-dasharray=""/><g transform="matrix(0,1,-1,0,640,336)"><path fill="none" stroke="url(#tNUtnbUEaTRF)" paint-order="fill stroke markers" d=" M 0 0 L 2 6 L 6 -6 L 10 6 L 14 -6 L 18 6 L 22 -6 L 26 6 L 30 -6 L 32 0" stroke-linecap="round" stroke-miterlimit="10" stroke-width="3" stroke-dasharray=""/></g><text fill="#ffffff" stroke="none" font-family="sans-serif" font-size="12px" font-style="normal" font-weight="normal" text-decoration="normal" x="650" y="358" text-anchor="start" dominant-baseline="alphabetic">1k</text><path fill="none" stroke="#01fd01" paint-order="fill stroke markers" d=" M 576 320 L 640 320" stroke-linecap="round" stroke-miterlimit="10" stroke-width="3" stroke-dasharray=""/><text fill="#ffffff" stroke="none" font-family="sans-serif" font-size="12px" font-style="normal" font-weight="normal" text-decoration="normal" x="608" y="314" text-anchor="start" dominant-baseline="alphabetic"></text><path fill="none" stroke="#6c936c" paint-order="fill stroke markers" d=" M 576 384 L 640 384" stroke-linecap="round" stroke-miterlimit="10" stroke-width="3" stroke-dasharray=""/><text fill="#ffffff" stroke="none" font-family="sans-serif" font-size="12px" font-style="normal" font-weight="normal" text-decoration="normal" x="608" y="378" text-anchor="start" dominant-baseline="alphabetic"></text><path fill="#ffffff" stroke="none" paint-order="stroke fill markers" d=" M 403 320 A 3 3 0 1 1 402.99999999995777 319.99998407846124 Z"/><path fill="#ffffff" stroke="none" paint-order="stroke fill markers" d=" M 435 288 A 3 3 0 1 1 434.99999999995777 287.99998407846124 Z"/><path fill="#ffffff" stroke="none" paint-order="stroke fill markers" d=" M 467 320 A 3 3 0 1 1 466.99999999995777 319.99998407846124 Z"/><path fill="#ffffff" stroke="none" paint-order="stroke fill markers" d=" M 435 352 A 3 3 0 1 1 434.99999999995777 351.99998407846124 Z"/><path fill="#ffffff" stroke="none" paint-order="stroke fill markers" d=" M 499 320 A 3 3 0 1 1 498.99999999995777 319.99998407846124 Z"/><path fill="#ffffff" stroke="none" paint-order="stroke fill markers" d=" M 499 384 A 3 3 0 1 1 498.99999999995777 383.99998407846124 Z"/><path fill="#ffffff" stroke="none" paint-order="stroke fill markers" d=" M 579 320 A 3 3 0 1 1 578.9999999999577 319.99998407846124 Z"/><path fill="#ffffff" stroke="none" paint-order="stroke fill markers" d=" M 579 384 A 3 3 0 1 1 578.9999999999577 383.99998407846124 Z"/><path fill="#ffffff" stroke="none" paint-order="stroke fill markers" d=" M 243 336 A 3 3 0 1 1 242.99999999995774 335.99998407846124 Z"/><path fill="#ffffff" stroke="none" paint-order="stroke fill markers" d=" M 195 336 A 3 3 0 1 1 194.99999999995774 335.99998407846124 Z"/></g></g></svg>