<svg version="1.1" xmlns="http://www.w3.org/2000/svg" xmlns:xlink="http://www.w3.org/1999/xlink" width="252" height="196"><defs><linearGradient id="lJNhgCssCvxP" x1="0px" x2="32px" y1="0px" y2="0px" gradientUnits="userSpaceOnUse"><stop offset="0" stop-color="#3dc23d"/><stop offset="1" stop-color="#3fbf3f"/></linearGradient><linearGradient id="XosuMMSOTxHO" x1="0px" x2="32px" y1="0px" y2="0px" gradientUnits="userSpaceOnUse"><stop offset="0" stop-color="#3fbf3f"/><stop offset="1" stop-color="#807f7f"/></linearGradient></defs><g><rect fill="#000000" stroke="none" x="0" y="0" width="252" height="196"/><g transform="scale(1,1) translate(-106,-126)"><path fill="none" stroke="#807f7f" paint-order="fill stroke markers" d=" M 240 272 L 240 256" stroke-linecap="round" stroke-miterlimit="10" stroke-width="3" stroke-dasharray=""/><path fill="none" stroke="#3fbf3f" paint-order="fill stroke markers" d=" M 240 240 L 240 224" stroke-linecap="round" stroke-miterlimit="10" stroke-width="3" stroke-dasharray=""/><path fill="#807f7f" stroke="none" paint-order="stroke fill markers" d=" M 232 256 L 248 256 L 240 240 Z"/><path fill="none" stroke="#3fbf3f" paint-order="fill stroke markers" d=" M 232 240 L 248 240" stroke-linecap="round" stroke-miterlimit="10" stroke-width="3" stroke-dasharray=""/><path fill="none" stroke="#3fbf3f" paint-order="fill stroke markers" d=" M 229 248 L 232 240" stroke-linecap="round" stroke-miterlimit="10" stroke-width="3" stroke-dasharray=""/><path fill="none" stroke="#3fbf3f" paint-order="fill stroke markers" d=" M 251 232 L 248 240" stroke-linecap="round" stroke-miterlimit="10" stroke-width="3" stroke-dasharray=""/><path fill="none" stroke="#3dc23d" paint-order="fill stroke markers" d=" M 176 176 L 192 176" stroke-linecap="round" stroke-miterlimit="10" stroke-width="3" stroke-dasharray=""/><path fill="none" stroke="#3fbf3f" paint-order="fill stroke markers" d=" M 224 176 L 240 176" stroke-linecap="round" stroke-miterlimit="10" stroke-width="3" stroke-dasharray=""/><g transform="matrix(1,0,0,1,192,176)"><path fill="none" stroke="url(#lJNhgCssCvxP)" paint-order="fill stroke markers" d=" M 0 0 L 2 6 L 6 -6 L 10 6 L 14 -6 L 18 6 L 22 -6 L 26 6 L 30 -6 L 32 0" stroke-linecap="round" stroke-miterlimit="10" stroke-width="3" stroke-dasharray=""/></g><text fill="#ffffff" stroke="none" font-family="sans-serif" font-size="12px" font-style="normal" font-weight="normal" text-decoration="normal" x="202" y="166" text-anchor="start" dominant-baseline="alphabetic">60</text><path fill="none" stroke="#3fbf3f" paint-order="fill stroke markers" d=" M 288 176 L 288 208" stroke-linecap="round" stroke-miterlimit="10" stroke-width="3" stroke-dasharray=""/><path fill="none" stroke="#807f7f" paint-order="fill stroke markers" d=" M 288 240 L 288 272" stroke-linecap="round" stroke-miterlimit="10" stroke-width="3" stroke-dasharray=""/><g transform="matrix(0,1,-1,0,288,208)"><path fill="none" stroke="url(#XosuMMSOTxHO)" paint-order="fill stroke markers" d=" M 0 0 L 2 6 L 6 -6 L 10 6 L 14 -6 L 18 6 L 22 -6 L 26 6 L 30 -6 L 32 0" stroke-linecap="round" stroke-miterlimit="10" stroke-width="3" stroke-dasharray=""/></g><text fill="#ffffff" stroke="none" font-family="sans-serif" font-size="12px" font-style="normal" font-weight="normal" text-decoration="normal" x="298" y="230" text-anchor="start" dominant-baseline="alphabetic">2k</text><path fill="none" stroke="#807f7f" paint-order="fill stroke markers" d=" M 176 272 L 240 272" stroke-linecap="round" stroke-miterlimit="10" stroke-width="3" stroke-dasharray=""/><text fill="#ffffff" stroke="none" font-family="sans-serif" font-size="12px" font-style="normal" font-weight="normal" text-decoration="normal" x="208" y="266" text-anchor="start" dominant-baseline="alphabetic"></text><path fill="none" stroke="#807f7f" paint-order="fill stroke markers" d=" M 240 272 L 288 272" stroke-linecap="round" stroke-miterlimit="10" stroke-width="3" stroke-dasharray=""/><text fill="#ffffff" stroke="none" font-family="sans-serif" font-size="12px" font-style="normal" font-weight="normal" text-decoration="normal" x="264" y="266" text-anchor="start" dominant-baseline="alphabetic"></text><path fill="none" stroke="#3fbf3f" paint-order="fill stroke markers" d=" M 240 176 L 288 176" stroke-linecap="round" stroke-miterlimit="10" stroke-width="3" stroke-dasharray=""/><text fill="#ffffff" stroke="none" font-family="sans-serif" font-size="12px" font-style="normal" font-weight="normal" text-decoration="normal" x="264" y="170" text-anchor="start" dominant-baseline="alphabetic"></text><path fill="none" stroke="#807f7f" paint-order="fill stroke markers" d=" M 176 272 L 176 241" stroke-linecap="round" stroke-miterlimit="10" stroke-width="3" stroke-dasharray=""/><path fill="none" stroke="#3dc23d" paint-order="fill stroke markers" d=" M 176 207 L 176 176" stroke-linecap="round" stroke-miterlimit="10" stroke-width="3" stroke-dasharray=""/><path fill="none" stroke="#808080" paint-order="fill stroke markers" d=" M 192.66 224 A 16.66 16.66 0 1 1 192.6599916700007 223.98334000277666" stroke-linecap="round" stroke-miterlimit="10" stroke-width="3" stroke-dasharray=""/><path fill="none" stroke="#808080" paint-order="fill stroke markers" d=" M 166 224 L 167 222 L 168 220 L 169 218 L 170 217 L 171 217 L 172 217 L 173 218 L 174 220 L 175 222 L 176 224 L 177 226 L 178 228 L 179 230 L 180 231 L 181 231 L 182 231 L 183 230 L 184 228 L 185 226 L 186 224" stroke-linecap="round" stroke-miterlimit="10" stroke-width="3" stroke-dasharray=""/><text fill="#ffffff" stroke="none" font-family="sans-serif" font-size="12px" font-style="normal" font-weight="normal" text-decoration="normal" x="129" y="230" text-anchor="start" dominant-baseline="alphabetic">40Hz</text><text fill="#ffffff" stroke="none" font-family="sans-serif" font-size="12px" font-style="normal" font-weight="normal" text-decoration="normal" x="184" y="207" text-anchor="start" dominant-baseline="alphabetic">*</text><path fill="none" stroke="#3fbf3f" paint-order="fill stroke markers" d=" M 240 176 L 240 192" stroke-linecap="round" stroke-miterlimit="10" stroke-width="3" stroke-dasharray=""/><path fill="none" stroke="#3fbf3f" paint-order="fill stroke markers" d=" M 240 208 L 240 224" stroke-linecap="round" stroke-miterlimit="10" stroke-width="3" stroke-dasharray=""/><path fill="#3fbf3f" stroke="none" paint-order="stroke fill markers" d=" M 248 192 L 232 192 L 240 208 Z"/><path fill="none" stroke="#3fbf3f" paint-order="fill stroke markers" d=" M 248 208 L 232 208" stroke-linecap="round" stroke-miterlimit="10" stroke-width="3" stroke-dasharray=""/><path fill="none" stroke="#3fbf3f" paint-order="fill stroke markers" d=" M 251 200 L 248 208" stroke-linecap="round" stroke-miterlimit="10" stroke-width="3" stroke-dasharray=""/><path fill="none" stroke="#3fbf3f" paint-order="fill stroke markers" d=" M 229 216 L 232 208" stroke-linecap="round" stroke-miterlimit="10" stroke-width="3" stroke-dasharray=""/><path fill="#ffffff" stroke="none" paint-order="stroke fill markers" d=" M 243 272 A 3 3 0 1 1 242.99999999995774 271.99998407846124 Z"/><path fill="#ffffff" stroke="none" paint-order="stroke fill markers" d=" M 243 176 A 3 3 0 1 1 242.99999999995774 175.99998407846124 Z"/></g></g></svg>